<svg xmlns="http://www.w3.org/2000/svg" width="431.951" height="336.018" viewBox="0 0 431.951 336.018">
  <path id="Sustracción_3" data-name="Sustracción 3" d="M254,386.368v0h0c-43.449-35.75-86.85-53.877-129-53.877-2.95,0-5.935.09-8.872.267-31.232,1.877-48.51,12.776-66.8,24.314-8.415,5.308-17.116,10.8-27.316,15.353a122.194,122.194,0,0,1-16.679,6.063,135.064,135.064,0,0,1-20.182,4.05,143.017,143.017,0,0,1-17.8,1.145,125.645,125.645,0,0,1-24.939-2.448,136.1,136.1,0,0,1-22.1-6.456c-14.38-5.5-27.563-12.985-39.193-19.592l-1.132-.643c-17.494-9.941-35.584-20.22-56.491-24.989V51.34a177.4,177.4,0,0,1,20.71,2.615,169.967,169.967,0,0,1,26.018,6.915,148.295,148.295,0,0,1,20.906,9.309C-96.314,76.96-86.32,84.585-76.656,91.96c19.774,15.089,36.85,28.12,68.251,28.12,2.136,0,4.348-.062,6.575-.185,37.309-2.05,63.427-19.676,88.685-36.722,23.391-15.786,45.484-30.7,73.928-30.7a85.492,85.492,0,0,1,12.027.868,94.588,94.588,0,0,1,25.662,7.568,116.74,116.74,0,0,1,22.07,13.275,156.4,156.4,0,0,1,18.5,16.6A210.557,210.557,0,0,1,254,108.346V386.364h0v0Z" transform="translate(177 -50.807)" fill="#a98583" stroke="rgba(0,0,0,0)" stroke-miterlimit="10" stroke-width="1"/>
</svg>
