<svg xmlns="http://www.w3.org/2000/svg" width="432" height="374.561" viewBox="0 0 432 374.561">
  <path id="Sustracción_4" data-name="Sustracción 4" d="M-424.08,444.561h-.01A105.424,105.424,0,0,1-442.465,443a107.835,107.835,0,0,1-16.135-4.154c-10.2-3.452-19.3-8-28.943-12.824-6.071-3.036-12.349-6.175-18.958-9.033V147.55c7.678-.069,15.47-.442,23.16-1.111,57.515-5.006,97.862-25.339,133.46-43.279C-333.1,94.7-317.246,86.714-300.76,80.791a172.116,172.116,0,0,1,25.332-7.1A141.844,141.844,0,0,1-248.2,71h.608a148.942,148.942,0,0,1,14.95.8c5.181.536,10.514,1.357,15.852,2.441a158.264,158.264,0,0,1,26.019,7.579,142.175,142.175,0,0,1,20.907,10.2c12.552,7.431,22.545,15.788,32.21,23.869,18.532,15.5,34.536,28.88,62.154,30.63V434.295l-.282.039-.068.009a130.678,130.678,0,0,1-17.8,1.255,115.031,115.031,0,0,1-24.939-2.683,127.16,127.16,0,0,1-22.1-7.075c-14.38-6.023-27.563-14.23-39.193-21.471l-1.146-.713c-25.2-15.693-49-30.516-81.913-30.516a116.28,116.28,0,0,0-18.955,1.607c-32.244,5.346-49.45,20.923-66.089,35.986-9.159,8.292-17.81,16.123-28.759,22.3a84.5,84.5,0,0,1-18.3,7.686,100.55,100.55,0,0,1-23.192,3.7C-420.19,444.512-422.158,444.561-424.08,444.561Z" transform="translate(507 -70.5)" fill="#f3e7e2" stroke="rgba(0,0,0,0)" stroke-miterlimit="10" stroke-width="1"/>
</svg>
