<svg xmlns="http://www.w3.org/2000/svg" width="431.501" height="347.492" viewBox="0 0 431.501 347.492">
  <path id="Sustracción_2" data-name="Sustracción 2" d="M-824,359.095V39.7c59.527,28.635,118.091,43.154,174.066,43.154,8.582,0,17.28-.345,25.853-1.025,57.515-4.567,97.862-23.121,133.459-39.49C-474.5,34.931-459.27,27.928-443.491,22.6a191.379,191.379,0,0,1,24.18-6.55A156.233,156.233,0,0,1-393.5,13.075V289.137c-3.345-.3-6.769-.449-10.178-.449a127.164,127.164,0,0,0-18.952,1.467c-32.244,4.879-49.449,19.091-66.089,32.836-9.159,7.566-17.809,14.711-28.759,20.344a89.1,89.1,0,0,1-18.3,7.013,109.433,109.433,0,0,1-23.192,3.376c-1.965.088-3.933.133-5.85.133a115.294,115.294,0,0,1-18.377-1.429,116.387,116.387,0,0,1-16.139-3.791c-10.2-3.15-19.309-7.3-28.952-11.7-19.42-8.859-39.5-18.02-70.091-19.209-2.148-.083-4.327-.125-6.477-.125-39.444,0-79.53,13.961-119.144,41.5Z" transform="translate(824.5 -12.559)" fill="#f3e7e2" stroke="rgba(0,0,0,0)" stroke-miterlimit="10" stroke-width="1"/>
</svg>
